<?xml version="1.0" encoding="utf-8"?>
<!-- Svg Vector Icons : http://www.onlinewebfonts.com/icon -->
<!DOCTYPE svg PUBLIC "-//W3C//DTD SVG 1.1//EN" "http://www.w3.org/Graphics/SVG/1.1/DTD/svg11.dtd">
<svg version="1.1" xmlns="http://www.w3.org/2000/svg" xmlns:xlink="http://www.w3.org/1999/xlink" x="0px" y="0px" viewBox="0 0 1000 1000" enable-background="new 0 0 1000 1000" xml:space="preserve">
<metadata> Svg Vector Icons : http://www.onlinewebfonts.com/icon </metadata>
<g><g><g><path d="M437.7,265v-44.8c-36.6-35.5-61.4-82.8-103.3-112.7c-47.7-33.9-106.2-46.2-163.7-37.7c-49.4,7.3-105,19-153.5,1.3c-4.4-1.6-8.5,2.7-6.8,6.9c14.7,37.1,73.1,150.7,234.1,163.2C363.9,250.4,412.1,257.1,437.7,265z"/><path d="M982.7,71.2c-48.4,17.8-104.1,6.1-153.5-1.3c-57.5-8.5-116,3.7-163.7,37.7c-41.9,29.8-66.7,77.1-103.3,112.7v44.8c25.5-7.9,73.8-14.7,193.2-23.9c160.9-12.5,219.3-126,234.2-163C991.3,73.8,987.1,69.6,982.7,71.2z"/><path d="M456.3,177.7c5.4,5,11.7,9.2,18.6,12v221.8l-18.6-8.8l-18.6-8.8l-85-40.1h61.1c10.6,0,19.7-6.9,22.9-16.5c0.9-2.4,1.3-5,1.3-7.7v-23.8c0-2.7-0.4-5.3-1.3-7.7c-3.2-9.6-12.2-16.5-22.9-16.5H309.4c-13.4,0-24.2,10.9-24.2,24.2v80c0,9.6,5.6,18.2,14.3,22l117.8,53l-72.7,43.4c-7.3,4.4-11.8,12.2-11.8,20.8V536c0,9.4,5.4,17.9,13.9,21.9l76.1,35.8l-49.7,27.8c-7.7,4.3-12.3,12.3-12.3,21.1v11.6c0,9.3,5.3,17.8,13.6,21.8l52.5,25.4l-47.6,33c-6.5,4.5-10.4,11.9-10.4,19.9v15.3c0,9.8,6,18.6,15,22.3l44.3,18.3l-18.3,18.2c-4.6,4.6-7.1,10.6-7.1,17.1l0,0c0,9.6,5.6,18.2,14.3,22l4,1.8c5.2,2.3,11.1,2.8,16.5,1.2c1.4-0.4,2.8-1,4.2-1.6l14.5-7.2l18.6-9.3v57.6c0,13,10.4,23.4,23.4,23.4h3.1c13,0,23.4-10.4,23.4-23.4v-57.4l18.6,9.3l14.5,7.1c1.3,0.6,2.7,1.2,4.2,1.6c5.4,1.6,11.3,1.2,16.5-1.2l4-1.8c8.7-3.9,14.3-12.6,14.3-22l0,0c0-6.4-2.6-12.6-7.1-17.1l-18-18.3L616,792c9-3.7,15-12.6,15-22.3v-15.4c0-8-3.8-15.3-10.4-19.9l-47.6-33l52.5-25.4c8.3-4,13.6-12.5,13.6-21.8v-11.6c0-8.7-4.7-16.8-12.3-21.1L577,593.7l76.1-35.8c8.5-3.9,13.9-12.6,13.9-21.9V525c0-8.5-4.5-16.4-11.8-20.8l-72.7-43.4l117.9-52.9c8.7-3.9,14.3-12.6,14.3-22v-80c0-13.4-10.9-24.2-24.2-24.2l-104.2-0.3c-10.6,0-19.7,6.9-22.9,16.5c-0.9,2.4-1.3,5-1.3,7.8v23.8c0,2.7,0.4,5.3,1.3,7.8c3.2,9.6,12.2,16.5,22.9,16.5l60.9,0.3l-85.1,39.9l-18.6,8.8l-18.6,8.8V189.7c6.9-3,13.2-7,18.6-12c8.9-8.3,15.5-19.3,18.6-31.5c1.3-5,1.9-10.1,1.9-15.5c0-5.3-0.6-10.5-1.9-15.5c-1.6-6.3-4-12.2-7.3-17.7c-11.3-18.5-31.6-31-54.9-31s-43.6,12.3-54.9,31c-3.3,5.4-5.7,11.4-7.3,17.7c-1.3,5-1.9,10.1-1.9,15.5c0,5.3,0.6,10.5,1.9,15.5C440.8,158.4,447.4,169.3,456.3,177.7z M474.9,668.1l-37.5-20l37.5-20V668.1z M422.8,528.5l52.1-26.4v52.8L422.8,528.5z M437.5,757.1l37.5-20v40L437.5,757.1z M524.9,777.1v-39.9l37.5,20L524.9,777.1z M524.9,668.1v-39.9l37.5,20L524.9,668.1z M577,528.5l-52.1,26.4v-52.8L577,528.5z"/></g></g><g></g><g></g><g></g><g></g><g></g><g></g><g></g><g></g><g></g><g></g><g></g><g></g><g></g><g></g><g></g></g>
</svg>